<?xml version="1.0" standalone="no"?>
<!DOCTYPE svg PUBLIC "-//W3C//DTD SVG 20010904//EN"
 "http://www.w3.org/TR/2001/REC-SVG-20010904/DTD/svg10.dtd">
<svg version="1.0" xmlns="http://www.w3.org/2000/svg"
 width="2048.000000pt" height="2048.000000pt" viewBox="0 0 2048.000000 2048.000000"
 preserveAspectRatio="xMidYMid meet">
<metadata>
Created by potrace 1.11, written by Peter Selinger 2001-2013
</metadata>
<g transform="translate(0.000000,2048.000000) scale(0.100000,-0.100000)"
fill="#000000" stroke="none">
<path d="M5520 13178 c0 -2103 0 -3883 0 -3956 l0 -132 -62 -29 c-35 -16 -126
-59 -203 -96 -77 -37 -172 -82 -212 -101 -39 -18 -120 -57 -180 -85 -59 -28
-148 -71 -198 -94 -49 -23 -142 -67 -205 -97 -63 -30 -151 -72 -195 -93 -44
-20 -129 -61 -190 -90 -60 -29 -198 -95 -305 -145 -107 -51 -241 -114 -298
-141 -57 -27 -107 -49 -113 -49 -5 0 -9 -4 -9 -10 0 -5 -6 -10 -14 -10 -8 0
-37 -12 -66 -26 -61 -30 -63 -15 30 -208 37 -78 86 -179 108 -226 22 -47 64
-137 94 -200 31 -63 71 -149 91 -190 19 -41 67 -141 105 -221 38 -80 73 -156
77 -168 3 -11 10 -21 14 -21 4 0 39 15 77 34 81 39 167 79 174 81 3 1 57 27
120 57 398 191 650 311 680 322 8 3 22 10 30 15 25 17 305 148 343 162 21 7
37 17 37 21 0 4 5 8 10 8 6 0 66 27 135 59 l125 60 0 -82 c0 -45 0 -974 0
-2065 l1 -1982 669 0 670 0 0 2383 0 2382 63 29 c81 39 285 135 417 198 137
66 316 151 410 195 41 20 122 58 180 86 58 27 146 69 195 92 l90 43 3 -2704 2
-2704 670 0 670 0 0 3023 0 3024 103 48 c56 27 156 74 222 106 116 55 226 107
405 191 47 22 159 76 248 119 90 44 166 79 168 79 2 0 50 23 105 50 55 28 102
50 105 50 2 0 4 -1505 4 -3345 l0 -3345 670 0 670 0 0 3663 0 3663 43 22 c23
11 94 45 157 75 63 30 177 84 253 121 77 36 140 66 142 66 2 0 79 36 171 81
342 164 586 279 590 279 2 0 4 -1793 4 -3985 l0 -3985 670 0 670 0 0 4057 c0
2232 0 4169 0 4305 l0 247 98 47 c53 26 129 61 167 79 39 18 124 59 190 91 66
32 122 59 125 59 3 1 43 20 90 42 47 22 123 59 170 81 137 64 275 130 425 202
77 36 160 76 185 87 25 12 101 48 170 81 269 128 348 166 420 199 41 19 82 39
90 44 8 5 22 12 30 15 37 14 66 30 72 39 4 5 8 6 8 2 0 -9 60 24 60 34 0 3
-20 47 -45 98 -25 50 -45 96 -45 101 0 6 -5 10 -10 10 -6 0 -9 3 -8 8 1 4 -11
34 -26 67 -28 57 -83 174 -166 350 -134 286 -269 565 -273 565 -2 0 -122 -57
-268 -126 -145 -69 -295 -140 -334 -159 -38 -18 -110 -52 -160 -75 -152 -72
-308 -146 -342 -161 -18 -7 -33 -17 -33 -21 0 -5 -6 -8 -14 -8 -13 0 -105 -43
-481 -224 -49 -24 -91 -42 -93 -41 -1 1 -2 772 -2 1713 l-1 1712 -669 0 -670
0 0 -2034 0 -2034 -47 -20 c-27 -11 -113 -52 -193 -90 -80 -38 -185 -88 -235
-112 -49 -23 -154 -74 -233 -111 -79 -38 -145 -69 -147 -69 -2 0 -86 -40 -186
-88 -101 -49 -213 -102 -249 -119 l-65 -30 -3 2353 -2 2354 -670 0 -670 0 0
-2673 0 -2673 -97 -47 c-54 -25 -152 -72 -218 -103 -66 -31 -165 -78 -220
-104 -55 -26 -145 -69 -200 -95 -55 -26 -147 -70 -205 -97 -58 -28 -132 -63
-165 -78 -33 -15 -102 -48 -154 -74 -52 -25 -96 -45 -98 -43 -1 2 -3 1350 -3
2995 l0 2992 -670 0 -670 0 0 -3314 0 -3313 -76 -37 c-41 -20 -79 -36 -85 -36
-5 0 -9 -5 -9 -12 0 -6 -3 -9 -6 -6 -3 4 -36 -9 -74 -28 -104 -51 -200 -94
-204 -91 -2 1 -12 -5 -22 -14 -11 -8 -48 -28 -84 -44 -36 -16 -148 -68 -248
-117 -101 -48 -185 -88 -187 -88 -2 0 -82 -38 -180 -85 -97 -47 -178 -85 -181
-85 -2 0 -4 1636 -4 3635 l0 3635 -670 0 -669 0 -1 -3822z"/>
</g>
</svg>
